<svg xmlns="http://www.w3.org/2000/svg" viewBox="0 0 511.998 511.998" width="512" height="512"><path d="M482.193 315.609L19.174 263.436c-3.558-.401-5.956 3.456-4.113 6.528 29.594 49.365 99.652 84.164 181.205 84.164h276.216a4.266 4.266 0 0 0 4.079-3.012l9.233-30.012c.785-2.551-.947-5.196-3.601-5.495zm28.459-85.547a8.533 8.533 0 0 0-6.05-3.857l-128-17.067c-4.617-.606-8.96 2.662-9.591 7.33-.631 4.668 2.662 8.969 7.33 9.591l14.49 1.929a4.268 4.268 0 0 1 3.703 4.224v13.193c0 2.534-2.202 4.514-4.719 4.241l-34.133-3.661a4.256 4.256 0 0 1-3.814-4.233v-37.35c0-.845.247-1.664.717-2.364l14.916-22.374a8.533 8.533 0 0 0 .521-8.576 8.548 8.548 0 0 0-7.219-4.685l-179.2-8.533c-2.876-.026-5.666 1.212-7.347 3.567 0 0-34.099 47.923-41.574 58.47a4.242 4.242 0 0 1-3.934 1.766l-117.31-12.56a8.543 8.543 0 0 0-6.613 2.133A8.569 8.569 0 0 0 0 217.595c0 8.218 1.067 16.273 3.081 24.09.444 1.724 1.946 2.978 3.712 3.183L488.9 299.191a4.269 4.269 0 0 0 4.557-2.987l18.168-59.034a8.56 8.56 0 0 0-.973-7.108zm-264.397-47.266l-6.656 46.609c-.324 2.261-2.33 3.874-4.608 3.644-16.648-1.681-79.198-8.26-79.198-8.26-3.243-.35-4.915-4.062-3.021-6.724l29.312-41.037a4.277 4.277 0 0 1 3.678-1.783l56.474 2.688a4.263 4.263 0 0 1 4.019 4.863zm92.51 6.221l-5.248 7.851a4.262 4.262 0 0 0-.717 2.372v39.774c0 2.534-2.202 4.514-4.719 4.241l-67.721-7.253a4.273 4.273 0 0 1-3.772-4.847l6.903-48.324a4.27 4.27 0 0 1 4.429-3.661l67.499 3.217c3.312.153 5.189 3.865 3.346 6.63zm104.968 61.875c0 2.534-2.202 4.514-4.719 4.241 0 0-17.715-1.997-25.651-2.935a4.256 4.256 0 0 1-3.763-4.233v-12.339a4.27 4.27 0 0 1 4.83-4.233l25.6 3.413a4.283 4.283 0 0 1 3.703 4.233v11.853zm47.13-4.284l-3.166 10.274a4.274 4.274 0 0 1-4.531 2.987l-18.56-1.988a4.269 4.269 0 0 1-3.806-4.241v-11.179a4.27 4.27 0 0 1 4.83-4.233l21.717 2.893a4.272 4.272 0 0 1 3.516 5.487z" fill="#454647"/></svg>