<svg xmlns="http://www.w3.org/2000/svg" viewBox="0 0 611.999 611.999" width="512" height="512"><g fill="#FFF"><path d="M570.416 562.822c-5.758-109.379-104.063-154.627-104.063-154.627-23.487-10.982-66.07-32.48-93.989-46.691 35.77-39.134 46.335-102.939 47.98-112.018 7.465-41.08 3.708-91.926 3.708-91.926-6.826-98.875-106.653-100.428-117.107-100.324-.577 0-.952.006-.952.006s-.319-.006-.792 0c-9.478-.123-110.404.878-117.267 100.318 0 0-3.757 50.84 3.708 91.926.485 2.646 1.75 10.018 4.15 19.987 18.803 24.684 47.832 36.789 71.657 42.713 2.996-2.91 7.078-4.721 11.602-4.721h43.425c9.19 0 16.63 7.446 16.63 16.636 0 9.196-7.44 16.648-16.63 16.648h-43.425c-6.857 0-12.719-4.137-15.279-10.037-17.771-4.322-38.336-11.848-56.691-24.794 7.323 19.011 17.759 39.404 32.553 55.592-27.919 14.211-70.484 35.702-93.989 46.685 0 0-98.292 45.248-104.063 154.627 0 0-1.707 18.189 32.762 25.076 0 0 105.597 24.1 231.661 24.1 126.076 0 231.673-24.1 231.673-24.1 34.463-6.887 32.738-25.076 32.738-25.076z"/><path d="M154.147 284.944h10.491V161.722c.025-.307.098-.602.098-.915v-18.195c0-32.437 10.012-58.729 29.76-78.151 40.847-40.19 110.619-39.643 111.797-39.478.829-.061 70.018-1.056 111.048 39.103 19.883 19.46 29.969 45.874 29.969 78.526v19.239c0 .19.049.362.049.546v122.546h10.491c25.819 0 46.746-20.927 46.746-46.74V193.28c0-20.767-13.56-38.348-32.308-44.432v-6.231c0-39.619-12.615-72.043-37.47-96.377C386.361-1.186 308.958.042 306.251.005c-3.253-.031-80.73-.982-129.164 46.531-24.769 24.309-37.335 56.635-37.335 96.076v6.206c-18.772 6.083-32.345 23.677-32.345 44.456v44.923c.001 25.82 20.933 46.747 46.74 46.747z"/></g></svg>