<svg xmlns="http://www.w3.org/2000/svg" viewBox="0 0 512 512" width="512" height="512"><path d="M507.281 297.771a8.542 8.542 0 0 0 4.719-7.637V256a8.53 8.53 0 0 0-8.533-8.533H460.8v-153.6a8.53 8.53 0 0 0-8.533-8.533H307.2a8.545 8.545 0 0 0-7.945 5.419l-71.142 181.094-40.38-13.457V102.4a8.53 8.53 0 0 0-8.533-8.533h-17.067a8.53 8.53 0 0 0-8.533 8.533V256H128a8.53 8.53 0 0 0-8.533 8.533v110.933H8.533C3.823 375.467 0 379.281 0 384s3.823 8.533 8.533 8.533h165.12c7.049 19.857 25.967 34.133 48.213 34.133 18.901 0 35.405-10.325 44.271-25.6h144.674c3.814 14.686 17.067 25.6 32.922 25.6 15.855 0 29.107-10.914 32.922-25.6h26.812a8.53 8.53 0 0 0 8.533-8.533V332.8a8.53 8.53 0 0 0-8.533-8.533h-8.533V303.94l12.347-6.169zm-319.548-21.402l34.133 11.375-15.258 38.844c-7.083 2.219-13.474 5.973-18.876 10.82v-61.039zM221.867 409.6c-18.825 0-34.133-15.309-34.133-34.133s15.309-34.133 34.133-34.133S256 356.642 256 375.467 240.691 409.6 221.867 409.6zm196.266-221.867H384a8.53 8.53 0 0 0-8.533 8.533v42.667h-34.133a8.53 8.53 0 0 0-8.533 8.533v32.119L318.993 307.2h-33.604l21.274-56.73a8.534 8.534 0 0 0-4.821-10.923l-2.057-.819 11.238-22.468 9.429 4.719c4.224 2.091 9.344.393 11.452-3.814 2.108-4.215.401-9.344-3.814-11.452l-17.067-8.533c-4.224-2.099-9.344-.401-11.452 3.814l-15.684 31.377-18.944-7.578L313.02 102.4h130.714v170.667h-17.067v-76.8a8.532 8.532 0 0 0-8.534-8.534zm25.6 221.867c-9.412 0-17.067-7.654-17.067-17.067 0-9.412 7.654-17.067 17.067-17.067 9.412 0 17.067 7.654 17.067 17.067s-7.654 17.067-17.067 17.067z" fill="#e8501a"/></svg>