<svg xmlns="http://www.w3.org/2000/svg" id="svg4485" viewBox="0 0 340.16 264.57333"><style>@keyframes flash{0%,50%,to{opacity:1}25%,75%{opacity:0}}</style><defs id="defs4489"><clipPath id="clipPath4501"><path d="M0 198.43h255.12V0H0z" id="path4499"/></clipPath></defs><g id="g4493" transform="matrix(1.33333 0 0 -1.33333 0 264.573)"><g id="g4495" transform="translate(-25.537 -15.334) scale(1.19344)" stroke-width=".838"><g id="g4497" clip-path="url(#clipPath4501)"><g id="g4503" transform="translate(35.246 82.71)"><path d="M0 0a18.459 18.459 0 0 0-9.078 7.566c-1.998 3.235-3.017 7.013-2.946 10.929l.001.051.001.053c.068 2.05.434 4.085 1.086 6.047a21.504 21.504 0 0 0 2.826 5.605c2.603 3.695 6.289 6.452 10.659 7.972l92.886 32.466 87.982-32.52a20.952 20.952 0 0 0 10.146-8.065 21.727 21.727 0 0 0 3.627-11.552c.127-3.861-.807-7.61-2.7-10.846-2.047-3.5-5.069-6.147-8.735-7.656L95.442-37.2z" id="path4505" fill="#2082c6" fill-rule="evenodd"/></g><g id="g4507" transform="translate(216.38 83.81)"><path d="M0 0c.093-.65-.279-1.207-.929-1.3-.65-.185-1.208.279-1.301.836-.093.464.186.929.186 1.3l.929.371C-.929.836-.093.558 0 0m-4.46-1.856c.093-.651-.279-1.208-.93-1.301-.65-.093-1.208.278-1.3.928-.093.373.279.836.186 1.3l.929.372c.185-.464 1.022-.743 1.115-1.299m-4.46-1.858c.093-.65-.279-1.208-.93-1.3-.65-.093-1.208.279-1.3.928 0 .372.279.836.279 1.3l.836.372c.185-.465 1.021-.743 1.115-1.3m-4.46-1.765c.093-.743-.279-1.299-.93-1.393-.557-.092-1.208.278-1.3.929 0 .464.278.836.278 1.3l.837.372c.185-.464 1.021-.651 1.115-1.208m-4.367-1.857c.092-.65-.372-1.301-.93-1.393-.65-.092-1.207.279-1.301.928-.092.465.186.929.186 1.301l.93.371c.092-.465 1.021-.649 1.115-1.207m-4.461-1.856c.094-.652-.278-1.208-.929-1.394a1.156 1.156 0 0 0-1.3.929c-.094.465.278.928.185 1.392l.929.371c.094-.463 1.023-.743 1.115-1.298m-4.46-1.859c.093-.649-.279-1.207-.929-1.3-.65-.185-1.208.279-1.301.836-.093.464.279.929.186 1.393l.93.372c.093-.465 1.021-.743 1.114-1.301m-4.46-1.856c.093-.651-.279-1.208-.929-1.301-.651-.093-1.209.278-1.301.836-.093.465.279.929.186 1.393l.929.372c.093-.465 1.022-.744 1.115-1.3m-4.46-1.858c.093-.65-.278-1.208-.93-1.3-.65-.093-1.207.278-1.3.929 0 .464.279.835.186 1.299l.929.372c.185-.465 1.022-.65 1.115-1.3m-4.46-1.857c.093-.65-.279-1.208-.93-1.301-.557-.093-1.208.279-1.3.93 0 .464.278.928.185 1.392l.93.372c.185-.558 1.021-.744 1.115-1.393m-4.461-1.765c.094-.742-.278-1.3-.929-1.392-.557-.093-1.208.278-1.208.928-.092.464.279.928.186 1.393l.837.372c.185-.465 1.114-.744 1.114-1.301m-4.366-1.857c.092-.65-.372-1.3-.93-1.393-.65-.092-1.208.28-1.3.929-.093.464.278.929.185 1.394l.836.371c.187-.465 1.116-.744 1.209-1.301m-4.461-1.858c.094-.649-.278-1.207-.929-1.392a1.158 1.158 0 0 0-1.301.929c-.093.463.279.928.186 1.486l.836.278c.187-.464 1.115-.743 1.208-1.301m-4.46-1.856c.093-.65-.279-1.207-.929-1.3-.65-.186-1.208.279-1.301.835-.093.465.279 1.022.186 1.486l.93.372c.093-.557 1.021-.744 1.114-1.393m-4.46-1.857c.093-.651-.278-1.207-.93-1.3-.65-.093-1.207.278-1.299.836-.094.556.278 1.021.185 1.485l.929.371c.094-.556 1.022-.742 1.115-1.392m-4.46-1.858c.093-.649-.279-1.207-.93-1.3-.649-.092-1.207.279-1.3.928 0 .465.372.93.186 1.394l.929.372c.093-.558 1.022-.743 1.115-1.394m-4.46-1.857c.093-.65-.279-1.207-.929-1.3-.558-.093-1.208.278-1.301.929 0 .464.372.928.185 1.486l.93.37c.093-.557 1.021-.835 1.115-1.485m-4.461-1.765c.093-.742-.278-1.3-.836-1.393-.65-.092-1.3.279-1.3.929-.094.464.278 1.022.092 1.487l.93.371c.093-.558 1.114-.836 1.114-1.394M4.46 1.857c.093-.65-.278-1.207-.929-1.299-.65-.186-1.208.278-1.302.835-.092.464.187.836.187 1.3l.837.371h.093c.185-.463 1.021-.649 1.114-1.207M-174.967-.557c-.093-.65.279-1.207.929-1.299.651-.187 1.208.278 1.301.835.093.464-.186.928-.186 1.3l-.929.371c-.279-.371-1.022-.65-1.115-1.207m4.739-1.764c-.093-.743.279-1.3.929-1.393.651-.093 1.208.278 1.301.928.093.372-.186.836-.186 1.208l-.929.371c-.279-.371-1.115-.649-1.115-1.114m4.646-1.858c-.093-.65.372-1.3 1.022-1.392.558-.093 1.208.278 1.301.928 0 .372-.279.836-.279 1.3l-.929.371c-.185-.464-1.022-.649-1.115-1.207m4.739-1.857c-.093-.65.371-1.207.929-1.393a1.159 1.159 0 0 1 1.301.929c.092.464-.186.836-.186 1.3l-.929.371c-.278-.464-1.022-.65-1.115-1.207m4.739-1.858c-.093-.649.279-1.206.929-1.298.65-.187 1.208.278 1.3.835.094.463-.185.928-.185 1.3l-.929.371c-.279-.371-1.115-.65-1.115-1.208m4.646-1.856c-.093-.65.371-1.207 1.022-1.301.65-.093 1.207.28 1.301.929 0 .372-.28.836-.28 1.208l-.928.371c-.186-.371-1.023-.649-1.115-1.207m4.738-1.765c-.092-.65.372-1.299.93-1.392.65-.093 1.208.278 1.301.928.093.372-.186.835-.186 1.3l-.929.371c-.186-.463-1.022-.649-1.116-1.207m4.74-1.857c-.093-.65.278-1.3.929-1.393.651-.092 1.207.279 1.301.928.092.465-.186.837-.186 1.301l-.93.371c-.279-.464-1.021-.649-1.114-1.207m4.645-1.857c-.093-.651.372-1.208 1.023-1.393a1.156 1.156 0 0 1 1.3.929c0 .464-.279.928-.186 1.299l-.928.372c-.279-.372-1.116-.65-1.209-1.207m4.739-1.857c-.092-.65.372-1.208 1.022-1.301.558-.092 1.208.279 1.208.836.094.465-.185.929-.185 1.393l-.929.278c-.187-.371-1.022-.649-1.116-1.206m4.739-1.765c-.093-.743.279-1.3.93-1.393.65-.093 1.207.278 1.3.93.093.371-.186.835-.186 1.298l-.929.372c-.185-.464-1.022-.65-1.115-1.207m4.739-1.857c-.186-.649.279-1.301.929-1.394.651-.092 1.209.28 1.302.93.092.464-.279.835-.186 1.3l-.93.371c-.279-.465-1.115-.65-1.115-1.207m4.646-1.857c-.092-.651.371-1.207 1.022-1.393.558-.093 1.208.371 1.301.929 0 .464-.279.927-.279 1.3l-.928.372c-.187-.465-1.023-.652-1.116-1.208m4.739-1.858a1.158 1.158 0 0 1 .929-1.3c.651-.186 1.208.279 1.302.836.092.464-.187.929-.187 1.393l-.929.278c-.186-.371-1.022-.649-1.115-1.207m4.739-1.856c-.093-.651.278-1.208.929-1.301.651-.093 1.208.278 1.301.929.093.372-.278.836-.186 1.299l-.929.373c-.186-.465-1.115-.744-1.115-1.3m4.646-1.766c-.093-.649.371-1.3 1.022-1.392.557-.093 1.208.279 1.301.929 0 .463-.279.835-.279 1.3l-.836.371c-.186-.465-1.115-.65-1.208-1.208m4.739-1.856c-.093-.651.372-1.301.929-1.394.65-.093 1.208.279 1.301.929.093.465-.186.929-.186 1.301l-.929.371c-.186-.464-1.022-.651-1.115-1.207m4.739-1.858c-.093-.65.278-1.207.929-1.393a1.158 1.158 0 0 1 1.301.929c.093.464-.279.928-.186 1.393l-.929.371c-.186-.464-1.022-.743-1.115-1.3M-179.706 1.3c-.093-.65.372-1.206 1.022-1.393.558-.093 1.208.372 1.301.929 0 .464-.279.836-.279 1.301l-.929.371c-.279-.464-1.022-.651-1.115-1.208m89.481-34.916c-.092-.65.372-1.207 1.022-1.3.651-.093 1.116.278 1.209.836 0 .464-.279.928-.186 1.392l-.837.373c-.186-.465-1.114-.744-1.208-1.301m-83.72 68.254c-.093.65.372 1.3.929 1.393.651.093 1.302-.279 1.302-.929.092-.464-.186-.836-.186-1.3l-.93-.371c-.186.464-1.022.65-1.115 1.207m4.646 1.671c-.093.65.278 1.208.929 1.3.651.093 1.208-.278 1.301-.835.093-.465-.279-.929-.186-1.393l-.929-.279c-.278.372-1.115.65-1.115 1.207m4.553 1.579c-.092.65.371 1.3.93 1.393.649.093 1.3-.371 1.3-.929.093-.464-.185-.928-.185-1.3l-.93-.371c-.185.464-1.021.65-1.115 1.207m4.646 1.579c-.092.742.279 1.3.93 1.393.649.093 1.208-.279 1.3-.929.094-.464-.278-.835-.185-1.3l-.93-.372c-.279.465-1.115.651-1.115 1.208m4.553 1.671c-.093.65.372 1.207.929 1.3.651.186 1.209-.279 1.302-.836.092-.464-.186-.928-.186-1.393l-.93-.278c-.186.371-1.022.65-1.115 1.207m4.646 1.579c-.093.65.279 1.3.93 1.392.65.093 1.207-.278 1.3-.928.093-.464-.279-.929-.186-1.393l-.929-.279c-.278.465-1.115.65-1.115 1.208m4.553 1.578c-.092.744.372 1.301.93 1.393.649.093 1.208-.278 1.3-.928.094-.372-.185-.836-.185-1.301l-.93-.371c-.185.465-1.021.65-1.115 1.207m4.554 1.672c-.093.65.371 1.207 1.022 1.3.65.186 1.207-.278 1.3-.835.093-.465-.278-.93-.186-1.393l-.278-.093-.65-.186c-.186.371-1.116.65-1.208 1.207m4.645 1.578c-.093.651.372 1.301.93 1.394.65.093 1.207-.279 1.301-.929.092-.465-.186-.928-.186-1.3l-.373-.186-.556-.185c-.186.464-1.023.65-1.116 1.206m4.553 1.672c-.092.65.372 1.208 1.022 1.301.651.092 1.208-.279 1.302-.93.092-.371-.279-.835-.186-1.299l-.558-.186-.372-.186c-.186.465-1.114.65-1.208 1.3m4.646 1.579c-.093.65.372 1.207.929 1.393a1.157 1.157 0 0 0 1.301-.929c.093-.464-.186-.928-.186-1.393l-.65-.186-.278-.093c-.187.372-1.023.651-1.116 1.208m4.553 1.578c-.093.651.372 1.3 1.022 1.393.651.093 1.209-.278 1.302-.928.093-.465-.28-.929-.186-1.3l-.837-.372h-.093c-.186.464-1.115.65-1.208 1.207m4.647 1.672c-.093.65.371 1.207.928 1.3.651.093 1.209-.279 1.301-.836.093-.464-.185-.928-.185-1.393l-.93-.371c-.186.464-1.021.743-1.114 1.3m4.552 1.578c-.093.651.372 1.208 1.023 1.394a1.158 1.158 0 0 0 1.3-.929c0-.465-.278-.929-.186-1.393-.371-.092-.65-.186-.928-.279-.186.372-1.115.65-1.209 1.207m4.647 1.579c-.093.651.371 1.301.928 1.394.651.092 1.209-.279 1.302-.93.092-.464-.28-.835-.186-1.299-.279-.186-.558-.279-.93-.372-.186.464-1.021.65-1.114 1.207m4.552 1.672c-.092.65.372 1.208 1.022 1.3.651.186 1.208-.279 1.301-.836 0-.464-.279-.928-.185-1.393-.372-.092-.651-.186-.93-.371-.186.465-1.115.743-1.208 1.3m4.646 1.579c-.093.65.372 1.299.93 1.392.65.093 1.208-.278 1.3-.929.093-.463-.278-.928-.186-1.392a11.64 11.64 0 0 0-.928-.279c-.186.372-1.023.65-1.116 1.208m4.554 1.578c-.094.743.371 1.3 1.022 1.393.65.093 1.208-.279 1.3-.928 0-.465-.278-.836-.185-1.301a6.281 6.281 0 0 0-.93-.371c-.185.464-1.115.65-1.207 1.207m-82.699-28.973c-.093.65.279 1.207.93 1.393a1.156 1.156 0 0 0 1.3-.929c.093-.464-.278-.835-.185-1.207l-.93-.371c-.279.464-1.115.65-1.115 1.114m175.804 1.858c.092.649-.28 1.207-.93 1.299-.65.093-1.208-.278-1.301-.928 0-.464.279-.929.186-1.393l.929-.278c.186.464 1.022.649 1.116 1.3m-4.368 1.578c.093.65-.279 1.207-.929 1.393a1.157 1.157 0 0 1-1.301-.929c0-.464.278-.928.186-1.393l.929-.371c.186.464 1.022.743 1.115 1.3m-4.367 1.672c.093.65-.279 1.207-.929 1.3-.558.092-1.208-.279-1.301-.929 0-.464.372-.929.185-1.393l.93-.371c.186.557 1.022.743 1.115 1.393m-4.367 1.578c.093.65-.279 1.208-.93 1.3-.557.186-1.207-.278-1.3-.836 0-.464.371-1.021.185-1.485l.93-.279c.185.465 1.022.743 1.115 1.3m-4.367 1.579c.093.742-.278 1.3-.93 1.393-.557.093-1.207-.279-1.301-.929 0-.464.373-.928.186-1.393l.93-.372c.185.558 1.022.744 1.115 1.301m-4.368 1.672c.094.65-.279 1.206-.836 1.299-.651.186-1.301-.278-1.301-.836-.093-.556.278-1.021.186-1.485l.836-.279c.186.464 1.115.743 1.115 1.301m-4.274 1.578c.093.743-.372 1.3-.928 1.393-.652.093-1.209-.279-1.302-.928-.093-.465.279-.93.185-1.393l.837-.372c.186.464 1.115.743 1.208 1.3m-4.367 1.672a1.156 1.156 0 0 1-.93 1.299c-.65.093-1.208-.278-1.3-.835-.093-.557.279-1.022.185-1.486l.836-.371c.094.557 1.115.743 1.209 1.393m-4.367 1.578c.093.651-.372 1.3-.93 1.393-.65.093-1.207-.278-1.301-.928-.092-.465.28-.929.187-1.486l.836-.279c.093.465 1.115.743 1.208 1.3m-4.367 1.672c.093.649-.28 1.207-.93 1.3-.65.093-1.208-.278-1.301-.929-.092-.464.279-.928.186-1.392l.837-.372c.093.557 1.114.743 1.208 1.393m-4.368 1.579c.093.649-.279 1.207-.929 1.393a1.157 1.157 0 0 1-1.301-.929c-.093-.464.278-1.021.186-1.486l.929-.372c0 .558 1.022.837 1.115 1.394m-4.368 1.671c.094.65-.278 1.207-.928 1.3-.651.093-1.208-.279-1.301-.929-.093-.464.278-.928.185-1.486l.93-.278c0 .557 1.022.743 1.114 1.393m-4.366 1.579c.093.65-.279 1.207-.93 1.393a1.156 1.156 0 0 1-1.3-.929c-.093-.557.279-1.022.186-1.486l.928-.371c0 .557 1.023.835 1.116 1.393m-4.367 1.671c.093.65-.279 1.207-.93 1.3-.65.093-1.208-.278-1.3-.928-.093-.465.372-.929.185-1.486l.93-.278c0 .463 1.021.742 1.115 1.392m-4.367 1.579c.093.65-.279 1.207-.93 1.3-.65.186-1.208-.278-1.301-.835-.092-.558.371-1.022.186-1.487l.093-.093.837-.278c0 .557 1.021.743 1.115 1.393m-4.368 1.671c.092.65-.279 1.208-.929 1.301-.65.093-1.208-.279-1.301-.929-.093-.465.371-1.021.186-1.486l.278-.092.651-.28c0 .558 1.022.837 1.115 1.486m-4.367 1.579c.093.65-.279 1.207-.929 1.3-.651.186-1.208-.279-1.301-.836-.093-.557.372-1.021.186-1.486l.464-.185.465-.186c0 .557 1.022.743 1.115 1.393m-4.367 1.579c.093.742-.279 1.3-.929 1.392-.651.094-1.208-.278-1.301-.928 0-.464.372-1.022.185-1.486l.652-.278.278-.094c0 .558 1.021.836 1.115 1.394M1.673 33.245c.093.65-.278 1.207-.93 1.393a1.157 1.157 0 0 1-1.3-.929c-.093-.464.278-.928.185-1.3l.93-.371c.185.464 1.022.743 1.115 1.207m-82.885 30.83c.093.65-.278 1.207-.929 1.3-.557.093-1.208-.278-1.3-.835 0-.558.371-1.022.185-1.486l.837-.371h.093c0 .556 1.021.742 1.114 1.392m-108.343-50.796c-.558-.278-.837-1.02-.558-1.578.279-.557.929-.836 1.487-.557.372.185.558.65.929.928-.093.28-.186.65-.186.929-.557 0-1.115.557-1.672.278m.279 8.451c-.651.372-.837 1.114-.465 1.671.279.558.929.744 1.487.465.371-.279.557-.743.836-1.022-.093-.279-.186-.65-.279-.928-.465.093-1.115-.372-1.579-.186m1.486-13.465a1.177 1.177 0 0 1 0-1.671c.372-.465 1.115-.465 1.58-.093.278.371.278.742.464 1.114a8.162 8.162 0 0 0-.557.929c-.372-.186-1.115.093-1.487-.279m.558 18.201c-.465.557-.372 1.3.093 1.672.464.464 1.207.371 1.579-.094.279-.278.279-.649.372-1.021-.186-.278-.465-.557-.65-.928-.372.185-1.115 0-1.394.371m2.973-22.473c-.279-.65 0-1.3.557-1.578.558-.278 1.209-.093 1.488.464.186.371 0 .836.092 1.207-.278.186-.557.372-.929.65-.371-.278-1.022-.278-1.208-.743m1.115 26.745c-.186.557.093 1.3.744 1.485a.992.992 0 0 0 1.393-.556c.186-.372 0-.836.093-1.208-.371-.186-.65-.372-1.022-.557-.371.279-1.022.371-1.208.836m-6.597-12.165c-.651-.186-1.115-.743-.929-1.393.092-.65.65-1.021 1.3-.929.372.093.651.464 1.023.65 0 .093 0 .279.093.372v.65c-.465.093-1.022.743-1.487.65m98.587 45.131c-.093.65.279 1.207.929 1.3.651.185 1.208-.279 1.301-.836.093-.464-.279-.929-.185-1.393l-.93-.371c-.186.464-1.022.742-1.115 1.3M12.544 13.93c.558-.279.837-1.022.558-1.578-.279-.558-.929-.837-1.487-.558-.372.185-.557.743-.929.928.092.279.092.65.186.929.464-.093 1.207.558 1.672.279m-.465 7.8c.558.372.744 1.114.465 1.671-.278.558-1.023.744-1.486.465-.372-.279-.558-.65-.837-.929.093-.372.186-.65.279-1.021.465 0 1.115-.372 1.579-.186m-.836-12.444a1.175 1.175 0 0 0 0-1.671c-.465-.465-1.115-.465-1.58 0-.278.186-.278.65-.464.929.186.371.371.649.464 1.021.465-.186 1.209.093 1.58-.279M9.942 26.837c.465.558.372 1.301-.092 1.672-.465.464-1.208.464-1.58 0-.279-.371-.279-.743-.464-1.114.278-.279.464-.558.743-.836.371.093 1.114-.093 1.393.278M8.549 5.015c.278-.557 0-1.3-.558-1.579-.557-.279-1.208 0-1.487.557-.186.279-.093.651-.093.929l.837.836c.371-.279 1.115-.279 1.301-.743M5.947 30.923c.186.558-.093 1.3-.65 1.486-.651.279-1.301 0-1.487-.557-.093-.371 0-.836 0-1.207.278-.186.65-.372.929-.558.371.279 1.022.372 1.208.836m6.69-11.979c.65-.186 1.115-.742.929-1.393-.092-.65-.65-1.021-1.3-.928-.372.092-.745.557-1.116.65-.092.185-.092.464-.092.65v.371c.557 0 1.021.743 1.579.65m-92.641-52.096c.094-.65-.371-1.3-.929-1.393a1.156 1.156 0 0 0-1.3.929c-.093.464.278 1.021.185 1.486l.836.371c0-.556 1.115-.743 1.208-1.393" style="animation:flash .8s cubic-bezier(0,.85,1,.06) infinite" id="path4509" fill="#fed739" fill-rule="evenodd"/></g><g id="g4511" transform="translate(38.533 115.57)"><path d="M0 0l92.083 32.13L179.149 0c7.991-2.972 9.663-8.916 9.849-14.487.093-5.2-1.858-11.794-7.897-14.208L92.083-65.376l-94.22 36.681c-6.411 2.414-8.456 9.008-8.27 14.208C-10.314-8.916-8.548-2.972 0 0" id="path4513" fill="#9b764e" fill-rule="evenodd"/></g><g id="g4515" transform="translate(40.02 114.548)"><path d="M0 0l90.596 31.666L176.268 0c5.946-2.229 9.292-7.894 9.384-13.465.186-5.201-2.508-10.122-7.248-12.073L90.596-61.753-2.323-25.538c-5.018 1.951-7.805 6.872-7.712 12.073C-9.85-7.894-6.412-2.229 0 0" id="path4517" fill="#aa804f" fill-rule="evenodd"/></g><g id="g4519" transform="translate(41.507 112.597)"><path d="M0 0l89.109 31.016L173.295 0c10.871-4.086 10.871-17.922 1.857-21.637L89.109-57.11l-91.06 35.473C-11.521-17.922-11.521-4.086 0 0" id="path4521" fill="#fff" fill-rule="evenodd"/></g><g id="g4523" transform="translate(127.682 129.154)"><path d="M0 0c-3.497-.061-6.391-2.953-6.391-6.628 0-3.616 2.954-6.568 6.572-6.568 3.678 0 6.632 2.952 6.632 6.568C6.813-2.953 4.04-.121.422 0z" id="path4525" fill="#9babbd" fill-rule="evenodd"/></g><g id="g4527" transform="translate(141.61 129.154)"><path d="M0 0c-3.617-.061-6.451-2.953-6.451-6.628 0-3.616 2.954-6.568 6.632-6.568 3.618 0 6.572 2.952 6.572 6.568C6.753-2.953 3.979-.121.422 0z" id="path4529" fill="#9babbd" fill-rule="evenodd"/></g><g id="g4531" transform="translate(113.874 129.154)"><path d="M0 0c-3.618-.061-6.451-2.953-6.451-6.628 0-3.616 2.954-6.568 6.572-6.568 3.678 0 6.632 2.952 6.632 6.568C6.753-2.953 3.979-.121.362 0z" id="path4533" fill="#9babbd" fill-rule="evenodd"/></g><g id="g4535" transform="translate(99.947 129.154)"><path d="M0 0c-3.618-.061-6.452-2.953-6.452-6.628 0-3.616 2.955-6.568 6.633-6.568 3.617 0 6.572 2.952 6.572 6.568C6.753-2.953 3.979-.121.422 0z" id="path4537" fill="#9babbd" fill-rule="evenodd"/></g><g id="g4539" transform="translate(86.019 129.154)"><path d="M0 0c-3.557-.061-6.451-2.953-6.451-6.628 0-3.616 2.954-6.568 6.632-6.568 3.677 0 6.632 2.952 6.632 6.568C6.813-2.953 4.04-.121.422 0z" id="path4541" fill="#9babbd" fill-rule="evenodd"/></g><g id="g4543" transform="translate(169.405 129.154)"><path d="M0 0c-3.558-.061-6.452-2.953-6.452-6.628 0-3.616 2.955-6.568 6.633-6.568 3.677 0 6.631 2.952 6.631 6.568C6.812-2.953 4.039-.121.421 0z" id="path4545" fill="#9babbd" fill-rule="evenodd"/></g><g id="g4547" transform="translate(155.537 129.154)"><path d="M0 0c-3.617-.061-6.451-2.953-6.451-6.628 0-3.616 2.954-6.568 6.572-6.568 3.678 0 6.632 2.952 6.632 6.568C6.753-2.953 3.979-.121.362 0z" id="path4549" fill="#9babbd" fill-rule="evenodd"/></g><g id="g4551" transform="translate(111.101 126.563)"><path d="M0 0h2.231v-6.327h4.643v-2.169H-.181V0z" style="animation:flash .8s ease-in-out infinite" id="path4553" fill="#5c76a9" fill-rule="evenodd"/></g><g id="g4555" transform="translate(112.97 126.201)"><path d="M0 0h-1.688v-7.773h6.331v1.446H0v.181z" id="path4557" fill="#f14a43" fill-rule="evenodd"/></g><g id="g4559" transform="translate(116.95 119.03)"><path d="M0 0h-4.944v6.629h.361V.362H0z" id="path4561" fill="#f8b345" fill-rule="evenodd"/></g><g id="g4563" transform="translate(96.811 126.563)"><path d="M0 0h6.692v-2.23H2.231v-1.024h3.798v-2.229H2.231v-.844h4.461v-2.169H-.181V0z" style="animation:flash .8s ease-in-out infinite" id="path4565" fill="#5c76a9" fill-rule="evenodd"/></g><g id="g4567" transform="translate(166.33 126.563)"><path d="M0 0h6.633v-2.23H2.231v-1.024H6.03v-2.229H2.231v-.844h4.402v-2.169H-.181V0z" style="animation:flash .8s ease-in-out infinite" id="path4569" fill="#5c76a9" fill-rule="evenodd"/></g><g id="g4571" transform="translate(103.143 126.201)"><path d="M0 0h-6.15v-7.773H0v1.446h-4.462v1.567h3.798v1.506h-3.798v1.748H0z" id="path4573" fill="#f14a43" fill-rule="evenodd"/></g><g id="g4575" transform="translate(172.6 126.201)"><path d="M0 0h-6.089v-7.773H0v1.446h-4.461v1.567h3.858v1.506h-3.858v1.748H0z" id="path4577" fill="#f14a43" fill-rule="evenodd"/></g><g id="g4579" transform="translate(141.61 124.393)"><path d="M0 0c-.663 0-1.266-.241-1.688-.663-.422-.421-.664-1.024-.664-1.687 0-.603.242-1.205.664-1.627C-1.266-4.399-.663-4.7 0-4.7c.603 0 1.206.301 1.628.723.422.422.724 1.024.724 1.627 0 .663-.302 1.266-.724 1.687A2.33 2.33 0 0 1 0 0m0 2.109c1.206 0 2.291-.542 3.075-1.326C3.919 0 4.401-1.084 4.401-2.35a4.14 4.14 0 0 0-1.326-3.073C2.291-6.207 1.206-6.749 0-6.749c-1.266 0-2.352.542-3.136 1.326A4.325 4.325 0 0 0-4.401-2.35c0 1.266.482 2.35 1.265 3.133.784.784 1.87 1.326 3.136 1.326" style="animation:flash .8s ease-in-out infinite" id="path4581" fill="#5c76a9" fill-rule="evenodd"/></g><g id="g4583" transform="translate(141.61 124.755)"><path d="M0 0c.724 0 1.387-.301 1.869-.784.543-.482.845-1.145.845-1.927a2.47 2.47 0 0 0-.845-1.869C1.387-5.062.724-5.423 0-5.423c-.783 0-1.447.361-1.93.843a2.648 2.648 0 0 0-.783 1.869c0 .782.302 1.445.783 1.927A2.683 2.683 0 0 0 0 0m0 1.386A4.105 4.105 0 0 1-2.895.181C-3.617-.542-4.04-1.567-4.04-2.711c0-1.085.423-2.11 1.145-2.833A4.105 4.105 0 0 1 0-6.749c1.085 0 2.11.482 2.834 1.205.724.723 1.206 1.748 1.206 2.833A4.095 4.095 0 0 1 2.834.181C2.11.904 1.085 1.386 0 1.386" id="path4585" fill="#f14a43" fill-rule="evenodd"/></g><g id="g4587" transform="translate(141.61 125.297)"><path d="M0 0a3.555 3.555 0 0 1-2.352-.904 3.547 3.547 0 0 1-.904-2.349c0-.844.361-1.688.904-2.29A3.555 3.555 0 0 1 0-6.447c.844 0 1.688.361 2.291.904.543.602.965 1.446.965 2.29 0 .903-.422 1.747-.965 2.349C1.688-.361.844 0 0 0m0 .362C.965.362 1.869 0 2.532-.663a3.64 3.64 0 0 0 1.085-2.59c0-.965-.422-1.869-1.085-2.532A3.557 3.557 0 0 0 0-6.809c-1.024 0-1.93.362-2.593 1.024-.663.663-1.024 1.567-1.024 2.532 0 1.024.361 1.927 1.024 2.59C-1.93 0-1.024.362 0 .362" id="path4589" fill="#f8b345" fill-rule="evenodd"/></g><g id="g4591" transform="translate(151.438 126.563)"><path d="M0 0h2.17l.06-.121 1.991-5.001L6.149-.121 6.21 0h2.352v-8.496H6.149v2.229l-.843-2.109-.061-.12h-2.11v.12L2.23-6.267v-2.229H-.182V0z" style="animation:flash .8s ease-in-out infinite" id="path4593" fill="#5c76a9" fill-rule="evenodd"/></g><g id="g4595" transform="translate(153.367 126.201)"><path d="M0 0h-1.749v-7.773h1.688v3.736l1.507-3.736h1.628l1.508 3.736v-3.736h1.689V0h-1.75L2.472-5.363h-.363z" id="path4597" fill="#f14a43" fill-rule="evenodd"/></g><g id="g4599" transform="translate(81.376 126.563)"><path d="M0 0h2.11l.06-.121.784-3.374L3.979-.121 4.04 0h1.627l.061-.121.965-3.374.844 3.374V0h2.351l-.06-.241-1.93-8.135-.06-.12h-1.99l-.06.12-.965 3.193-.964-3.193v-.12h-2.05v.12L-.181-.241V0z" style="animation:flash .8s ease-in-out infinite" id="path4601" fill="#5c76a9" fill-rule="evenodd"/></g><g id="g4603" transform="translate(83.246 126.201)"><path d="M0 0h-1.628L.241-7.773h1.508l1.084 3.616h.302L4.22-7.773h1.508L7.597 0H5.969l-.965-3.856h-.301L3.557 0H2.412L1.266-3.856H.904z" id="path4605" fill="#f14a43" fill-rule="evenodd"/></g><g id="g4607" transform="translate(134.615 123.188)"><path d="M0 0c.061-.422.121-.844.121-1.265 0-3.797-3.075-6.93-6.934-6.93-3.798 0-6.873 3.133-6.873 6.93 0 .964.181 1.807.482 2.591a6.874 6.874 0 0 1-.301-1.989c0-1.868.783-3.555 1.989-4.76a6.71 6.71 0 0 1 4.764-1.989c1.868 0 3.557.724 4.822 1.989A6.739 6.739 0 0 1 .061-.663c0 .241 0 .482-.061.663" id="path4609" fill="#1c2821" fill-rule="evenodd"/></g><g id="g4611" transform="translate(148.543 123.188)"><path d="M0 0c.061-.422.121-.844.121-1.265 0-3.797-3.136-6.93-6.933-6.93-3.86 0-6.995 3.133-6.995 6.93 0 .964.181 1.807.542 2.591a6.908 6.908 0 0 1-.301-1.989c0-1.868.784-3.555 1.99-4.76 1.206-1.265 2.954-1.989 4.823-1.989 1.869 0 3.558.724 4.764 1.989C-.724-4.218 0-2.531 0-.663z" id="path4613" fill="#1c2821" fill-rule="evenodd"/></g><g id="g4615" transform="translate(120.809 123.188)"><path d="M0 0c.06-.422.06-.844.06-1.265 0-3.797-3.075-6.93-6.934-6.93-3.798 0-6.933 3.133-6.933 6.93 0 .964.18 1.807.482 2.591-.181-.603-.241-1.265-.241-1.989 0-1.868.723-3.555 1.989-4.76 1.206-1.265 2.894-1.989 4.764-1.989 1.869 0 3.617.724 4.823 1.989A6.738 6.738 0 0 1 0-.663z" id="path4617" fill="#1c2821" fill-rule="evenodd"/></g><g id="g4619" transform="translate(106.88 123.188)"><path d="M0 0c.06-.422.121-.844.121-1.265 0-3.797-3.136-6.93-6.934-6.93-3.859 0-6.995 3.133-6.995 6.93 0 .964.181 1.807.543 2.591a6.874 6.874 0 0 1-.301-1.989c0-1.868.784-3.555 1.989-4.76 1.206-1.265 2.954-1.989 4.824-1.989 1.869 0 3.557.724 4.763 1.989C-.724-4.218 0-2.531 0-.663z" id="path4621" fill="#1c2821" fill-rule="evenodd"/></g><g id="g4623" transform="translate(92.953 123.188)"><path d="M0 0c.06-.422.12-.844.12-1.265 0-3.797-3.075-6.93-6.933-6.93a6.933 6.933 0 0 0-6.935 6.93c0 .964.182 1.807.483 2.591a6.874 6.874 0 0 1-.301-1.989c0-1.868.784-3.555 1.989-4.76a6.746 6.746 0 0 1 4.824-1.989c1.869 0 3.557.724 4.823 1.989A6.738 6.738 0 0 1 .06-.663C.06-.422.06-.181 0 0" id="path4625" fill="#1c2821" fill-rule="evenodd"/></g><g id="g4627" transform="translate(176.338 123.188)"><path d="M0 0c.061-.422.121-.844.121-1.265 0-3.797-3.075-6.93-6.933-6.93-3.859 0-6.934 3.133-6.934 6.93 0 .964.181 1.807.481 2.591a6.909 6.909 0 0 1-.3-1.989c0-1.868.783-3.555 1.99-4.76a6.743 6.743 0 0 1 4.823-1.989c1.868 0 3.557.724 4.823 1.989a6.742 6.742 0 0 1 1.99 4.76c0 .241 0 .482-.061.663" id="path4629" fill="#1c2821" fill-rule="evenodd"/></g><g id="g4631" transform="translate(162.47 123.188)"><path d="M0 0c.061-.422.061-.844.061-1.265 0-3.797-3.076-6.93-6.934-6.93-3.799 0-6.934 3.133-6.934 6.93 0 .964.181 1.807.482 2.591-.181-.603-.24-1.265-.24-1.989 0-1.868.723-3.555 1.989-4.76 1.206-1.265 2.893-1.989 4.764-1.989 1.868 0 3.617.724 4.823 1.989A6.741 6.741 0 0 1 0-.663z" id="path4633" fill="#1c2821" fill-rule="evenodd"/></g><g id="g4635" transform="translate(127.802 126.502)"><path d="M0 0c.663 0 1.266-.181 1.869-.421a.452.452 0 0 1 .241-.121c.482-.241.845-.603 1.206-.964l.121-.12-.121-.121L2.11-2.952l-.12-.121-.181.121c-.06.06-.121.18-.181.241l-.181.18c-.422.302-.904.422-1.447.422-.664 0-1.206-.241-1.567-.663-.422-.421-.724-1.024-.724-1.686 0-.604.302-1.206.724-1.628A2.039 2.039 0 0 1 0-6.809c.422 0 .784.121 1.085.301.061 0 .061.061.121.061.301.18.482.361.663.602l.121.121.18-.121L3.376-7.05l.121-.12-.121-.121-.361-.361c-.121-.121-.302-.242-.423-.362C1.869-8.496.964-8.858 0-8.858c-1.206 0-2.23.543-3.015 1.326a4.144 4.144 0 0 0-1.326 3.074c0 1.265.483 2.349 1.326 3.132C-2.23-.542-1.206 0 0 0" style="animation:flash .8s ease-in-out infinite" id="path4637" fill="#5c76a9" fill-rule="evenodd"/></g><g id="g4639" transform="translate(127.802 126.14)"><path d="M0 0c-1.085 0-2.05-.482-2.773-1.205a4.095 4.095 0 0 1-1.206-2.892c0-1.085.482-2.11 1.206-2.833C-2.05-7.652-1.085-8.135 0-8.135c.904 0 1.749.302 2.412.783.121.121.241.182.362.302.059.06.12.18.181.241l-.905.904a2.662 2.662 0 0 0-.663-.482c-.06-.06-.121-.06-.181-.121C.844-6.688.482-6.809 0-6.809c-.723 0-1.326.362-1.869.844a2.643 2.643 0 0 0-.784 1.868c0 .783.302 1.446.784 1.928.543.482 1.146.783 1.869.783.603 0 1.206-.181 1.628-.482l.241-.241c.06 0 .06-.06.121-.06l.904.904c-.241.301-.602.542-.965.723-.06.06-.18.12-.241.12C1.206-.181.603 0 0 0" id="path4641" fill="#f14a43" fill-rule="evenodd"/></g><g id="g4643" transform="translate(130.033 119.211)"><path d="M0 0c-.061-.061-.181-.121-.241-.181-.121-.06-.181-.12-.302-.12-.482-.302-1.085-.422-1.627-.422-1.025 0-1.87.422-2.533 1.085-.663.602-1.025 1.506-1.025 2.531 0 1.024.362 1.927 1.025 2.53.663.663 1.508 1.085 2.533 1.085.12 0 .241 0 .301-.06h.362a3.98 3.98 0 0 0 1.446-.663l-.241-.302c-.361.302-.783.482-1.266.603-.12 0-.241 0-.301.06h-.301c-.905 0-1.689-.361-2.231-.964-.603-.602-.965-1.386-.965-2.289 0-.904.362-1.688.965-2.29C-3.859 0-3.075-.361-2.17-.361c.542 0 1.024.12 1.446.361.121.06.181.06.242.121.12.06.18.12.241.18z" id="path4645" fill="#f8b345" fill-rule="evenodd"/></g><g id="g4647" transform="translate(102.54 119.03)"><path d="M0 0h-4.944v6.689H0v-.362h-4.582V3.375h3.859v-.361h-3.859V.362H0z" id="path4649" fill="#f8b345" fill-rule="evenodd"/></g><g id="g4651" transform="translate(171.997 119.03)"><path d="M0 0h-4.884v6.689H0v-.362h-4.521V3.375h3.797v-.361h-3.797V.362H0z" id="path4653" fill="#f8b345" fill-rule="evenodd"/></g><g id="g4655" transform="translate(90.12 125.659)"><path d="M0 0l-1.749-6.629h-.301L-3.919-.723l-1.93-5.906h-.301L-7.838 0h.361l1.508-5.965L-4.1-.121h.362l1.808-5.844L-.362 0z" id="path4657" fill="#f8b345" fill-rule="evenodd"/></g><g id="g4659" transform="translate(158.612 118.85)"><path d="M0 0l-.061 6.447L-2.412.603l-.061-.121h-.964l-.06.121-2.532 5.965V0h-.302l-.06 6.869v.181h.542l.061-.12L-3.196.844h.483L-.241 6.93l.06.12h.482v-.181L.361 0z" id="path4661" fill="#f8b345" fill-rule="evenodd"/></g><g id="g4663" transform="translate(56.223 94.506)"><path d="M0 0h3.054v-3.415A9.127 9.127 0 0 1 5.1-3.637c.737 0 1.42.116 2.046.347.626.231 1.18.588 1.66 1.069.442.444.801 1.004 1.078 1.679.276.676.451 1.458.525 2.346H4.608v3.053h5.774a7.97 7.97 0 0 1-.553 2.152c-.277.656-.636 1.198-1.079 1.623-.516.481-1.046.833-1.589 1.056-.544.221-1.231.333-2.06.333-.388 0-.715-.038-.982-.112l-.788-.221V6.606H.278v5.524c.592.333 1.365.61 2.318.833.952.222 1.91.333 2.872.333a9.833 9.833 0 0 0 3.123-.486 7.329 7.329 0 0 0 2.623-1.541c.889-.796 1.61-1.851 2.165-3.164.556-1.314.833-2.952.833-4.914 0-1.85-.269-3.427-.805-4.732-.536-1.305-1.277-2.373-2.22-3.206a7.534 7.534 0 0 0-2.915-1.665 11.546 11.546 0 0 0-3.386-.5c-1.055 0-2.009.101-2.86.306C1.175-6.403.5-6.2 0-5.996z" id="path4665" fill="#455ba1"/></g><g id="g4667" transform="translate(79.4 90.897)"><path d="M0 0c.462 0 .911.056 1.346.165.435.109.819.279 1.152.509.333.228.601.516.805.865.203.349.305.761.305 1.236 0 .606-.12 1.081-.361 1.429a2.46 2.46 0 0 1-.943.812 3.96 3.96 0 0 1-1.305.371c-.481.054-.962.082-1.443.082h-2.027V.165c.093-.036.241-.064.445-.082.203-.019.421-.032.652-.041.231-.01.472-.019.722-.028C-.403.005-.185 0 0 0m-1.225 8.356c.265 0 .571.009.92.027.349.018.638.046.864.082.717.22 1.335.549 1.855.989.518.44.778 1.016.778 1.731 0 .476-.094.869-.283 1.181a2.124 2.124 0 0 1-.751.741 3.23 3.23 0 0 1-1.061.385c-.397.073-.812.11-1.246.11-.491 0-.944-.009-1.359-.028a8.748 8.748 0 0 1-.963-.082V8.356zm8.22 3.636c0-.482-.06-.963-.181-1.443a3.955 3.955 0 0 0-.596-1.319 4.208 4.208 0 0 0-1.083-1.055c-.445-.305-.981-.532-1.61-.68v-.167a6.458 6.458 0 0 0 1.582-.472 4.044 4.044 0 0 0 1.305-.916c.37-.388.661-.86.874-1.415.213-.555.319-1.212.319-1.971 0-.999-.212-1.865-.638-2.595A5.27 5.27 0 0 0 5.26-1.832a7.828 7.828 0 0 0-2.429-1.026 11.7 11.7 0 0 0-2.803-.334H-1.18a35.936 35.936 0 0 0-3.303.167 12.1 12.1 0 0 0-1.597.25v19.153c.352.055.754.111 1.208.166.454.056.939.102 1.457.139a43.836 43.836 0 0 0 3.221.111c.906 0 1.79-.069 2.651-.209.86-.138 1.627-.383 2.303-.734a4.222 4.222 0 0 0 1.624-1.472c.407-.629.611-1.425.611-2.387" id="path4669" fill="#455ba1"/></g><g id="g4671" transform="translate(94.445 95.338)"><path d="M0 0h4.164L2.193 6.496h-.25zm4.914-3.053H-.888L-2.22-7.355h-3.803L.25 12.075h3.803l6.245-19.43H6.301z" id="path4673" fill="#455ba1"/></g><g id="g4675" transform="translate(112.015 96.088)"><path d="M0 0h-1.971v-8.105h-3.802v19.43h3.802V3.386H0l4.442 7.939h4.329L3.304 1.942 9.466-8.105H4.775z" id="path4677" fill="#455ba1"/></g><g id="g4679" transform="translate(130.809 97.198)"><path d="M0 0h1.333l2.748 10.215h3.913l-4.44-14.35a18.52 18.52 0 0 0-.848-2.207 6.106 6.106 0 0 0-1.109-1.666A4.36 4.36 0 0 0 .028-9.049c-.611-.24-1.351-.36-2.22-.36a6.86 6.86 0 0 0-1.444.138c-.426.092-.888.287-1.387.583l.971 3.082a3.91 3.91 0 0 1 .874-.333c.25-.056.523-.084.819-.084.406 0 .75.056 1.027.167.277.111.505.277.681.5.174.221.327.5.457.833.129.333.25.711.361 1.137h-2.804l-5.441 13.601h4.081z" id="path4681" fill="#455ba1"/></g><g id="g4683" transform="translate(143.408 95.338)"><path d="M0 0h4.164L2.193 6.496h-.25zm4.913-3.053H-.888l-1.333-4.302h-3.802L.25 12.075h3.804l6.244-19.43H6.301z" id="path4685" fill="#455ba1"/></g><g id="g4687" transform="translate(157.148 91.037)"><path d="M0 0h3.164v13.324H.499v-3.36h-3.053v6.412h15.211V9.964H9.604v3.36H6.968V0h3.136v-3.054H0z" id="path4689" fill="#455ba1"/></g><g id="g4691" transform="translate(175.524 97.698)"><path d="M0 0c0-.943.042-1.822.124-2.637.084-.814.241-1.522.473-2.123.231-.602.564-1.079 1-1.429.434-.353 1.012-.529 1.734-.529.648 0 1.184.135 1.609.404.426.267.769.679 1.029 1.234.259.556.439 1.254.541 2.097.101.841.152 1.836.152 2.983 0 .907-.033 1.767-.098 2.582-.065.814-.212 1.527-.443 2.137-.231.611-.569 1.097-1.014 1.458-.444.36-1.036.541-1.776.541-1.296 0-2.176-.565-2.638-1.693C.23 3.896 0 2.221 0 0m-3.997 0c0 1.573.148 2.989.444 4.247.296 1.258.75 2.318 1.36 3.178A6.225 6.225 0 0 0 .098 9.411c.916.462 1.993.693 3.233.693 1.332 0 2.461-.25 3.386-.75a6.17 6.17 0 0 0 2.262-2.081c.584-.888 1.009-1.953 1.278-3.192.267-1.24.402-2.601.402-4.081 0-3.164-.606-5.64-1.818-7.425-1.212-1.786-3.049-2.679-5.51-2.679-1.333 0-2.467.25-3.4.75a6.155 6.155 0 0 0-2.277 2.082c-.583.888-1.004 1.952-1.262 3.192-.26 1.239-.389 2.6-.389 4.08" id="path4693" fill="#455ba1"/></g><g id="g4695" transform="translate(194.871 104.415)"><path d="M0 0c-.37 0-.722-.014-1.055-.042a8.458 8.458 0 0 1-.804-.097v-6.3c.073-.019.184-.038.333-.056a8.07 8.07 0 0 1 .957-.056h.347c.499 0 .993.046 1.485.139.49.092.929.264 1.318.514s.698.596.93 1.04c.231.444.347 1.027.347 1.749 0 .61-.111 1.115-.333 1.513a2.715 2.715 0 0 1-.874.957 3.393 3.393 0 0 1-1.235.5A7.187 7.187 0 0 1 0 0m-5.663 2.803c.777.148 1.634.264 2.567.348.935.083 1.866.124 2.79.124.962 0 1.929-.079 2.901-.235a7.243 7.243 0 0 0 2.624-.944c.777-.472 1.41-1.129 1.9-1.971.49-.842.736-1.939.736-3.289 0-1.185-.212-2.198-.638-3.04a6.03 6.03 0 0 0-1.694-2.082 6.866 6.866 0 0 0-2.401-1.193 10.343 10.343 0 0 0-2.79-.375h-.443a15 15 0 0 0-1.291.055 4.58 4.58 0 0 0-.457.056v-6.69h-3.804z" id="path4697" fill="#455ba1"/></g><g id="g4699" transform="translate(44.76 99.037)"><path d="M0 0a3.252 3.252 0 0 0-3.252-3.25 3.251 3.251 0 1 0 0 6.5A3.252 3.252 0 0 0 0 0" id="path4701" fill="#4659a4" fill-rule="evenodd"/></g><g id="g4703" transform="translate(217.41 99.037)"><path d="M0 0a3.252 3.252 0 0 0-3.253-3.25 3.251 3.251 0 1 0 0 6.5A3.252 3.252 0 0 0 0 0" id="path4705" fill="#4659a4" fill-rule="evenodd"/></g><g id="g4707" transform="translate(119.748 68.097)"><path d="M0 0h-8.028v1.746c.143.12.323.279.539.477.217.198.459.423.729.675.27.252.555.528.855.828.3.299.594.612.883.936.407.456.765.87 1.07 1.242.306.371.558.723.757 1.053.197.33.344.654.441.972.095.318.144.645.144.981 0 .24-.055.474-.162.702a1.916 1.916 0 0 1-.451.603 2.15 2.15 0 0 1-.693.414 2.52 2.52 0 0 1-.891.153c-.432 0-.825-.066-1.178-.198-.355-.132-.723-.355-1.108-.666l-.935 1.656c.504.36 1.064.663 1.682.909.618.246 1.329.37 2.134.37a5.08 5.08 0 0 0 1.484-.217 3.9 3.9 0 0 0 1.26-.639c.366-.282.657-.633.874-1.053.215-.421.323-.906.323-1.458 0-.384-.034-.741-.098-1.071a5.22 5.22 0 0 0-.307-.99 6.807 6.807 0 0 0-.539-1.017 17.659 17.659 0 0 0-1.584-2.079 33.542 33.542 0 0 0-.838-.909 20.686 20.686 0 0 0-.819-.81c-.27-.252-.513-.463-.729-.63H0z" id="path4709" fill="#4659a4"/></g><g id="g4711" transform="translate(126.281 77.475)"><path d="M0 0l-3.132-3.996H0zm4.338-5.868h-2.16v-3.51H0v3.51h-5.454v1.602L.252 3.313h1.926v-7.309h2.16z" id="path4713" fill="#4659a4"/></g><g id="g4715" transform="translate(137.855 80.912)"><path d="M0 0l1.765-.791-6.427-14.544-1.764.827z" id="path4717" fill="#4659a4"/></g><g id="g4719" transform="translate(141.87 68.097)"><path d="M0 0l5.184 10.476H-.684v2.125h8.208v-1.765L2.286 0z" id="path4721" fill="#4659a4"/></g></g></g></g></svg>