<svg xmlns="http://www.w3.org/2000/svg" viewBox="0 0 512 512" width="512" height="512"><path d="M106.846 320c-28.237 0-51.2 22.963-51.2 51.2 0 28.237 22.963 51.2 51.2 51.2s51.2-22.963 51.2-51.2c0-28.237-22.972-51.2-51.2-51.2zm0 85.333c-18.825 0-34.133-15.309-34.133-34.133s15.309-34.133 34.133-34.133 34.133 15.309 34.133 34.133-15.317 34.133-34.133 34.133zM396.919 320c-28.237 0-51.2 22.963-51.2 51.2 0 28.237 22.963 51.2 51.2 51.2 28.237 0 51.2-22.963 51.2-51.2.001-28.237-22.971-51.2-51.2-51.2zm0 85.333c-18.825 0-34.133-15.309-34.133-34.133s15.309-34.133 34.133-34.133 34.133 15.309 34.133 34.133-15.317 34.133-34.133 34.133z" fill="#454647"/><path d="M503.467 294.4h-8.533V98.133a8.536 8.536 0 0 0-8.533-8.533H221.867c-18.85 0-34.133 15.283-34.133 34.133v179.2h-17.067v-128a8.536 8.536 0 0 0-8.533-8.533h-102.4a8.535 8.535 0 0 0-7.1 3.797l-51.2 76.8A8.53 8.53 0 0 0 0 251.733V345.6a8.536 8.536 0 0 0 8.533 8.533h25.378c3.627 0 7.023-2.15 8.226-5.572 9.583-27.281 35.49-45.628 64.427-45.628 17.775 0 39.134 6.4 49.911 14.933 1.638 1.297 3.567 2.133 5.658 2.133h25.6v25.6a8.536 8.536 0 0 0 8.533 8.533h128c3.627 0 7.023-2.15 8.226-5.572 9.583-27.281 35.49-45.628 64.427-45.628 28.732 0 54.485 18.099 64.23 45.082 1.041 3.533 4.309 6.118 8.183 6.118h34.133a8.536 8.536 0 0 0 8.533-8.533v-42.667c.002-4.709-3.821-8.532-8.531-8.532zm-384-55.467a4.268 4.268 0 0 1-4.267 4.267H32.452c-3.405 0-5.444-3.797-3.55-6.63l34.133-51.2a4.266 4.266 0 0 1 3.55-1.903H115.2a4.268 4.268 0 0 1 4.267 4.267v51.199z" fill="#454647"/></svg>