<svg xmlns="http://www.w3.org/2000/svg" viewBox="0 0 512 512" width="512" height="512"><path d="M479.216 112.164c.484-1.304.792-1.696.792-3.164 0-6.616-5.384-11-12-11h-28c-6.616 0-12 5.384-12 12 0 1.412.288 0 .74 4h-57.192L354 77.844C347.616 64.696 330.536 54 315.92 54H196.092c-14.616 0-31.7 10.696-38.084 23.844L140.46 114H124V96c0-2.212-1.78-2-3.992-2h-80C37.796 94 36 93.788 36 96v16c-20 0-36 16.148-36 36v272c0 19.852 16.156 38 36.008 38h440C495.86 458 512 439.852 512 420V148c0-18.764-14.432-34.204-32.784-35.836zM192 90c0-2.212 1.788-4 4-4h120c2.212 0 4 1.788 4 4v16c0 2.212-1.788 4-4 4H196c-2.212 0-4-1.788-4-4V90zM56.008 192c-13.236 0-24-10.764-24-24s10.764-24 24-24 24 10.764 24 24-10.764 24-24 24zm32 20c-6.616 0-12-5.384-12-12s5.384-12 12-12 12 5.384 12 12-5.384 12-12 12zm168 212c-77.196 0-140-62.804-140-140s62.804-140 140-140 140 62.804 140 140-62.804 140-140 140z" fill="#FFF"/><path d="M256.008 172c-61.756 0-112 50.244-112 112s50.244 112 112 112 112-50.244 112-112-50.244-112-112-112zm0 172c-33.084 0-60-26.916-60-60s26.916-60 60-60 60 26.916 60 60-26.916 60-60 60z" fill="#FFF"/></svg>