<svg xmlns="http://www.w3.org/2000/svg" viewBox="0 0 512 512" width="512" height="512"><path d="M379.801 157.565c-9.309 0-16.882 7.573-16.882 16.882 0 9.309 7.573 16.882 16.882 16.882 9.309 0 16.882-7.573 16.882-16.882.001-9.308-7.573-16.882-16.882-16.882zm-247.602 0c-9.309 0-16.882 7.573-16.882 16.882 0 9.309 7.573 16.882 16.882 16.882s16.882-7.573 16.882-16.882c0-9.308-7.574-16.882-16.882-16.882zm123.801 0c-9.309 0-16.882 7.573-16.882 16.882 0 9.309 7.573 16.882 16.882 16.882 9.309 0 16.882-7.573 16.882-16.882 0-9.308-7.573-16.882-16.882-16.882z" fill="#FFF"/><path d="M14.024 0v348.895H287.73L430.448 512V348.895h67.528V0H14.024zm118.175 225.094c-27.926 0-50.646-22.72-50.646-50.646 0-27.926 22.72-50.646 50.646-50.646 27.926 0 50.646 22.72 50.646 50.646 0 27.926-22.72 50.646-50.646 50.646zm123.801 0c-27.926 0-50.646-22.72-50.646-50.646 0-27.926 22.72-50.646 50.646-50.646s50.646 22.72 50.646 50.646c0 27.926-22.72 50.646-50.646 50.646zm123.801 0c-27.926 0-50.646-22.72-50.646-50.646 0-27.926 22.72-50.646 50.646-50.646s50.646 22.72 50.646 50.646c.001 27.926-22.719 50.646-50.646 50.646z" fill="#FFF"/></svg>