<svg xmlns="http://www.w3.org/2000/svg" viewBox="0 0 512 512" width="512" height="512"><path d="M392.533 298.667c-23.526 0-42.667 19.14-42.667 42.667 0 23.526 19.14 42.667 42.667 42.667 23.526 0 42.667-19.14 42.667-42.667s-19.14-42.667-42.667-42.667zm0 68.266c-14.114 0-25.6-11.486-25.6-25.6s11.486-25.6 25.6-25.6 25.6 11.486 25.6 25.6-11.486 25.6-25.6 25.6zm-273.066-68.266c-23.526 0-42.667 19.14-42.667 42.667C76.8 364.86 95.94 384 119.467 384s42.667-19.14 42.667-42.667c-.001-23.526-19.141-42.666-42.667-42.666zm0 68.266c-14.114 0-25.6-11.486-25.6-25.6s11.486-25.6 25.6-25.6 25.6 11.486 25.6 25.6-11.486 25.6-25.6 25.6z" fill="#454647"/><path d="M509.5 292.634l-6.033-6.033V136.533a8.53 8.53 0 0 0-8.533-8.533h-384a8.521 8.521 0 0 0-6.989 3.644l-59.068 84.378c-9.873 8.192-19.251 17.894-26.069 31.445l-6.443 17.067c-1.749 6.537-3.063 13.688-3.635 21.862l-6.23 6.238a8.513 8.513 0 0 0-2.5 6.033v17.067c0 2.261.896 4.437 2.5 6.033l6.033 6.033v13.534a8.53 8.53 0 0 0 8.533 8.533H51.2a8.53 8.53 0 0 0 8.533-8.533c0-32.939 26.803-59.733 59.733-59.733s59.733 26.795 59.733 59.733a8.53 8.53 0 0 0 8.533 8.533h136.533a8.53 8.53 0 0 0 8.533-8.533c0-32.939 26.803-59.733 59.733-59.733 32.93 0 59.733 26.795 59.733 59.733a8.53 8.53 0 0 0 8.533 8.533h34.133a8.53 8.53 0 0 0 8.533-8.533V327.8l6.033-6.033a8.513 8.513 0 0 0 2.5-6.033v-17.067a8.489 8.489 0 0 0-2.496-6.033zM187.733 204.8a8.53 8.53 0 0 1-8.533 8.533H85.333a8.534 8.534 0 0 1-7.526-4.506 8.535 8.535 0 0 1 .427-8.755l34.133-51.2a8.531 8.531 0 0 1 7.1-3.806H179.2a8.53 8.53 0 0 1 8.533 8.533V204.8z" fill="#454647"/></svg>