<svg xmlns="http://www.w3.org/2000/svg" viewBox="0 0 512 512" width="512" height="512"><path d="M384 302.933c-23.526 0-42.667 19.14-42.667 42.667 0 23.526 19.14 42.667 42.667 42.667 23.526 0 42.667-19.14 42.667-42.667 0-23.526-19.141-42.667-42.667-42.667zm0 68.267c-14.114 0-25.6-11.486-25.6-25.6S369.886 320 384 320s25.6 11.486 25.6 25.6-11.486 25.6-25.6 25.6zm-256-68.267c-23.526 0-42.667 19.14-42.667 42.667 0 23.526 19.14 42.667 42.667 42.667 23.526 0 42.667-19.14 42.667-42.667 0-23.526-19.141-42.667-42.667-42.667zm0 68.267c-14.114 0-25.6-11.486-25.6-25.6S113.886 320 128 320s25.6 11.486 25.6 25.6-11.486 25.6-25.6 25.6z" fill="#e8501a"/><path d="M503.467 157.867h-25.6v-25.6a8.53 8.53 0 0 0-8.533-8.533H221.867a8.551 8.551 0 0 0-7.927 5.359l-31.983 79.974H25.6a8.536 8.536 0 0 0-8.533 8.533v68.267H8.533A8.536 8.536 0 0 0 0 294.4v51.2a8.536 8.536 0 0 0 8.533 8.533h51.2a8.536 8.536 0 0 0 8.533-8.533c0-32.939 26.795-59.733 59.733-59.733s59.733 26.795 59.733 59.733a8.536 8.536 0 0 0 8.533 8.533h119.467a8.536 8.536 0 0 0 8.533-8.533c0-32.939 26.795-59.733 59.733-59.733 32.93 0 59.733 26.795 59.733 59.733a8.53 8.53 0 0 0 8.533 8.533H486.4a8.53 8.53 0 0 0 8.533-8.533v-51.2a8.53 8.53 0 0 0-8.533-8.533h-8.533V268.8h25.6a8.53 8.53 0 0 0 8.533-8.533V166.4a8.53 8.53 0 0 0-8.533-8.533zm-179.2 42.666a8.536 8.536 0 0 1-8.533 8.533h-102.4a8.514 8.514 0 0 1-6.921-3.55 8.556 8.556 0 0 1-1.178-7.689l17.067-51.2a8.528 8.528 0 0 1 8.098-5.828h85.333a8.536 8.536 0 0 1 8.533 8.533v51.201zm136.533 0a8.53 8.53 0 0 1-8.533 8.533h-102.4a8.536 8.536 0 0 1-8.533-8.533v-51.2a8.536 8.536 0 0 1 8.533-8.533h102.4a8.53 8.53 0 0 1 8.533 8.533v51.2z" fill="#e8501a"/></svg>