<svg xmlns="http://www.w3.org/2000/svg" viewBox="0 0 444.266 444.266" width="512" height="512"><path d="M380.152 230.217c-21.82 0-41.119 10.967-52.705 27.67l-16.688-7.148v-10.46l52.274-21.69 13.421-30.941h6.168l30.923 36.726a6.022 6.022 0 0 0 4.619 2.148 6.035 6.035 0 0 0 4.613-9.921L398.4 187.647h3.877a6.033 6.033 0 0 0 6.034-6.034c0-3.333-2.7-6.034-6.034-6.034h-9.065l7.896-3.743a7.542 7.542 0 0 0 3.611-9.989l-4.548-9.805a7.544 7.544 0 0 0-6.774-4.369l-83.704-.758h-.068c-2.094 0-4.094.87-5.522 2.403-.156.166-17.254 17.871-48.801 21.981-2.063-3.831-5.451-9.225-10.448-14.584-12.134-13.013-28.078-19.891-46.109-19.891-3.649 0-7.44.281-11.265.836l-.061.01c-.889.136-21.944 3.412-51.092 11.588-.318.017-.777.033-1.34.033-3.344 0-11.462-.596-14.625-6.119a10.46 10.46 0 0 1-.653-1.381l13.942-2.532a7.168 7.168 0 0 0 5.77-8.331 7.168 7.168 0 0 0-8.331-5.77l-11.234 2.04c1.719-7.095 5.623-16.795 13.383-30.019a7.544 7.544 0 0 0-9.17-10.875c-.836.315-20.684 7.946-38.691 26.767-11.527 12.048-23.764 30.391-27.604 56.062a27.625 27.625 0 0 1 3.888-5.731s20.592 13.441 8.968 32.9H56.995a139.11 139.11 0 0 0 1.565 12.24 7.547 7.547 0 0 0 2.329 4.27l16.844 15.477c-55.386-7.429-75.307 28.517-75.307 28.517-4.154 5.53-2.064 11.491 4.639 8.326A63.691 63.691 0 0 0 0 294.332c0 35.354 28.761 64.115 64.112 64.115 35.353 0 64.114-28.762 64.114-64.115 0-2.623-.178-5.205-.484-7.746h78.34l-30.925-23.052s-36.698 3.545-62.88-24.947a177.3 177.3 0 0 1 8.906-.226c21.23 0 50.784 3.821 71.012 22.023.261.234.538.451.829.647l69.392 46.77a7.521 7.521 0 0 0 4.213 1.288 7.528 7.528 0 0 0 5.336-2.21l27.959-27.959 16.668 7.139a64.18 64.18 0 0 0-.552 8.273c0 35.354 28.761 64.115 64.112 64.115 35.353 0 64.113-28.762 64.113-64.115s-28.76-64.115-64.113-64.115zm-69.392-15.545l47.245-22.4-6.386 14.719-40.859 16.955v-9.274zM64.112 328.276c-18.715 0-33.94-15.227-33.94-33.943s15.226-33.943 33.94-33.943c.79 0 1.571.037 2.348.09l-14.041 28.948 27.146 13.168 12.981-26.765a33.725 33.725 0 0 1 5.508 18.502c.001 18.716-15.226 33.943-33.942 33.943zm316.04 0c-17.172 0-31.397-12.823-33.627-29.397l25.678 10.999 11.88-27.734-27.806-11.909c6.137-6.082 14.574-9.846 23.875-9.846 18.715 0 33.942 15.227 33.942 33.943s-15.227 33.944-33.942 33.944z" stroke="#e8501a" fill="#e8501a" stroke-width="0" stroke-linecap="round" stroke-linejoin="round"/></svg>