<svg xmlns="http://www.w3.org/2000/svg" viewBox="0 0 512 512" width="512" height="512"><path d="M110.933 287.834c-23.526 0-42.667 19.14-42.667 42.667 0 23.526 19.14 42.667 42.667 42.667 23.526 0 42.667-19.14 42.667-42.667 0-23.526-19.14-42.667-42.667-42.667zm0 68.267c-14.114 0-25.6-11.486-25.6-25.6s11.486-25.6 25.6-25.6 25.6 11.486 25.6 25.6-11.486 25.6-25.6 25.6z" fill="#454647"/><path d="M503.467 287.834v-51.2a8.534 8.534 0 0 0-5.837-8.098l-48.145-16.051c-18.133-30.711-43.059-59.938-98.142-69.589l-.307-.051c-101.726-14.063-178.099 8.883-227.132 68.224-36.497.529-73.754 8.158-95.667 22.187-11.349 7.27-18.082 19.925-18.714 33.391l-.99 21.188A8.536 8.536 0 0 0 0 296.368v34.133a8.536 8.536 0 0 0 8.533 8.533h34.133c4.736 0 8.525-3.891 8.533-8.627 0-.043.009-.085.009-.137.128-32.879 26.812-59.503 59.725-59.503 32.99 0 59.733 26.743 59.733 59.733-.614 5.18 3.473 8.533 8.533 8.533h153.6c4.736 0 8.525-3.891 8.533-8.627 0-.043.008-.085.008-.137.128-32.879 26.812-59.503 59.725-59.503 32.99 0 59.733 26.743 59.733 59.733-.614 5.18 3.473 8.533 8.533 8.533h34.133a8.536 8.536 0 0 0 8.533-8.533v-34.133c.003-4.709-3.82-8.532-8.53-8.532zm-230.4-81.066a4.268 4.268 0 0 1-4.267 4.267H157.517c-3.942 0-5.734-4.847-2.825-7.501 29.611-26.991 67.268-42.428 113.673-46.532 2.5-.222 4.702 1.792 4.702 4.301v45.465zm102.519.042a4.271 4.271 0 0 1-4.267 4.224H294.4a4.268 4.268 0 0 1-4.267-4.267v-46.592c0-2.364 1.886-4.309 4.241-4.309 17.015-.017 35.021 1.22 54.161 3.866 9.114 1.604 17.237 3.806 24.627 6.511 1.698.623 2.782 2.27 2.765 4.079l-.341 36.488zm44.536 4.224H396.92a4.267 4.267 0 0 1-4.267-4.309l.222-23.125c.034-3.524 4.053-5.436 6.895-3.354 9.225 6.741 16.896 14.771 23.731 23.885 2.133 2.841.17 6.903-3.379 6.903z" fill="#454647"/><path d="M401.067 287.834c-23.526 0-42.667 19.14-42.667 42.667 0 23.526 19.14 42.667 42.667 42.667 23.526 0 42.667-19.14 42.667-42.667-.001-23.526-19.141-42.667-42.667-42.667zm0 68.267c-14.114 0-25.6-11.486-25.6-25.6s11.486-25.6 25.6-25.6 25.6 11.486 25.6 25.6-11.486 25.6-25.6 25.6z" fill="#454647"/></svg>